<svg width="24px" height="24px" viewBox="0 0 24 24">
    <g stroke="none" stroke-width="1" fill="none" fill-rule="evenodd">
        <g fill="#27313C">
            <g transform="translate(2.000000, 7.000000)">
                <path d="M0,1.99961498 C0,0.895258123 0.898212381,0 1.99079514,0 L18.0092049,0 C19.1086907,0 20,0.88743329 20,1.99961498 L20,8.00038502 C20,9.10474188 19.1017876,10 18.0092049,10 L1.99079514,10 C0.891309342,10 0,9.11256671 0,8.00038502 L0,1.99961498 Z M1,1.99703014 C1,1.4463856 1.44494629,1 1.99339768,1 L18.0066023,1 C18.5552407,1 19,1.45303631 19,1.99703014 L19,8.00296986 C19,8.5536144 18.5550537,9 18.0066023,9 L1.99339768,9 C1.44475929,9 1,8.54696369 1,8.00296986 L1,1.99703014 Z" id="Frame"></path>
                <rect id="Cell" x="3" y="3" width="4" height="4"></rect>
                <rect id="Cell" x="8" y="3" width="4" height="4"></rect>
            </g>
        </g>
    </g>
</svg>
