<svg width="24px" height="24px" viewBox="0 0 24 24">
    <g stroke="none" stroke-width="1" fill="none" fill-rule="evenodd">
        <g fill="#27313C">
            <g transform="translate(2.000000, 4.000000)">
                <path d="M0,1.99406028 C0,0.892771196 0.898212381,0 1.99079514,0 L18.0092049,0 C19.1086907,0 20,0.894513756 20,1.99406028 L20,14.0059397 C20,15.1072288 19.1017876,16 18.0092049,16 L1.99079514,16 C0.891309342,16 0,15.1054862 0,14.0059397 L0,1.99406028 Z M1,2.00684547 C1,1.45078007 1.44494629,1 1.99339768,1 L18.0066023,1 C18.5552407,1 19,1.44994876 19,2.00684547 L19,13.9931545 C19,14.5492199 18.5550537,15 18.0066023,15 L1.99339768,15 C1.44475929,15 1,14.5500512 1,13.9931545 L1,2.00684547 Z" id="Combined-Shape"></path>
                <rect id="Rectangle-453" x="0" y="3" width="20" height="3"></rect>
            </g>
        </g>
    </g>
</svg>
