<svg width="24px" height="24px" viewBox="0 0 24 24">
    <g stroke="none" stroke-width="1" fill="none" fill-rule="evenodd">
        <g fill="#27313C">
            <g transform="translate(3.000000, 10.000000)">
                <path d="M2,4 C3.1045695,4 4,3.1045695 4,2 C4,0.8954305 3.1045695,0 2,0 C0.8954305,0 0,0.8954305 0,2 C0,3.1045695 0.8954305,4 2,4 Z M2,3 C2.55228475,3 3,2.55228475 3,2 C3,1.44771525 2.55228475,1 2,1 C1.44771525,1 1,1.44771525 1,2 C1,2.55228475 1.44771525,3 2,3 Z" id="Combined-Shape"></path>
                <path d="M9,4 C10.1045695,4 11,3.1045695 11,2 C11,0.8954305 10.1045695,0 9,0 C7.8954305,0 7,0.8954305 7,2 C7,3.1045695 7.8954305,4 9,4 Z M9,3 C9.55228475,3 10,2.55228475 10,2 C10,1.44771525 9.55228475,1 9,1 C8.44771525,1 8,1.44771525 8,2 C8,2.55228475 8.44771525,3 9,3 Z" id="Combined-Shape"></path>
                <path d="M16,4 C17.1045695,4 18,3.1045695 18,2 C18,0.8954305 17.1045695,0 16,0 C14.8954305,0 14,0.8954305 14,2 C14,3.1045695 14.8954305,4 16,4 Z M16,3 C16.5522847,3 17,2.55228475 17,2 C17,1.44771525 16.5522847,1 16,1 C15.4477153,1 15,1.44771525 15,2 C15,2.55228475 15.4477153,3 16,3 Z" id="Combined-Shape"></path>
            </g>
        </g>
    </g>
</svg>
