<svg width="24px" height="24px" viewBox="0 0 24 24">
    <g stroke="none" stroke-width="1" fill="none" fill-rule="evenodd">
        <g fill="#27313C">
            <g transform="translate(10.000000, 3.000000)">
                <path d="M2,4 C3.1045695,4 4,3.1045695 4,2 C4,0.8954305 3.1045695,0 2,0 C0.8954305,0 0,0.8954305 0,2 C0,3.1045695 0.8954305,4 2,4 Z M2,3 C2.55228475,3 3,2.55228475 3,2 C3,1.44771525 2.55228475,1 2,1 C1.44771525,1 1,1.44771525 1,2 C1,2.55228475 1.44771525,3 2,3 Z" id="Combined-Shape"></path>
                <path d="M2,11 C3.1045695,11 4,10.1045695 4,9 C4,7.8954305 3.1045695,7 2,7 C0.8954305,7 0,7.8954305 0,9 C0,10.1045695 0.8954305,11 2,11 Z M2,10 C2.55228475,10 3,9.55228475 3,9 C3,8.44771525 2.55228475,8 2,8 C1.44771525,8 1,8.44771525 1,9 C1,9.55228475 1.44771525,10 2,10 Z" id="Combined-Shape"></path>
                <path d="M2,18 C3.1045695,18 4,17.1045695 4,16 C4,14.8954305 3.1045695,14 2,14 C0.8954305,14 0,14.8954305 0,16 C0,17.1045695 0.8954305,18 2,18 Z M2,17 C2.55228475,17 3,16.5522847 3,16 C3,15.4477153 2.55228475,15 2,15 C1.44771525,15 1,15.4477153 1,16 C1,16.5522847 1.44771525,17 2,17 Z" id="Combined-Shape"></path>
            </g>
        </g>
    </g>
</svg>
