<svg width="24px" height="24px" viewBox="0 0 24 24">
    <g stroke="none" stroke-width="1" fill="none" fill-rule="evenodd">
        <g fill="#27313C">
            <g transform="translate(2.000000, 5.000000)">
                <path d="M0,2.00585866 C0,0.898053512 0.898212381,0 1.99079514,0 L18.0092049,0 C19.1086907,0 20,0.897060126 20,2.00585866 L20,11.9941413 C20,13.1019465 19.1017876,14 18.0092049,14 L1.99079514,14 C0.891309342,14 0,13.1029399 0,11.9941413 L0,2.00585866 Z M1,2.00247329 C1,1.44882258 1.44494629,1 1.99339768,1 L18.0066023,1 C18.5552407,1 19,1.45576096 19,2.00247329 L19,11.9975267 C19,12.5511774 18.5550537,13 18.0066023,13 L1.99339768,13 C1.44475929,13 1,12.544239 1,11.9975267 L1,2.00247329 Z" id="Frame"></path>
                <rect id="Key" x="15" y="9" width="2" height="2"></rect>
                <rect id="Spacebar" x="6" y="9" width="8" height="2"></rect>
                <rect id="Key" x="3" y="9" width="2" height="2"></rect>
                <rect id="Key" x="15" y="6" width="2" height="2"></rect>
                <rect id="Key" x="12" y="6" width="2" height="2"></rect>
                <rect id="Key" x="9" y="6" width="2" height="2"></rect>
                <rect id="Key" x="6" y="6" width="2" height="2"></rect>
                <rect id="Key" x="3" y="6" width="2" height="2"></rect>
                <rect id="Key" x="15" y="3" width="2" height="2"></rect>
                <rect id="Key" x="12" y="3" width="2" height="2"></rect>
                <rect id="Key" x="9" y="3" width="2" height="2"></rect>
                <rect id="Key" x="6" y="3" width="2" height="2"></rect>
                <rect id="Key" x="3" y="3" width="2" height="2"></rect>
            </g>
        </g>
    </g>
</svg>
