<svg width="24px" height="24px" viewBox="0 0 24 24">
    <g stroke="none" stroke-width="1" fill="none" fill-rule="evenodd">
        <g fill="#27313C">
            <g transform="translate(2.000000, 2.000000)">
                <path d="M10,20 C15.5228475,20 20,15.5228475 20,10 C20,4.4771525 15.5228475,0 10,0 C4.4771525,0 0,4.4771525 0,10 C0,15.5228475 4.4771525,20 10,20 Z M10,19 C14.9705627,19 19,14.9705627 19,10 C19,5.02943725 14.9705627,1 10,1 C5.02943725,1 1,5.02943725 1,10 C1,14.9705627 5.02943725,19 10,19 Z" id="Combined-Shape"></path>
                <path d="M10,15 C12.7614237,15 15,12.7614237 15,10 C15,7.23857625 12.7614237,5 10,5 C7.23857625,5 5,7.23857625 5,10 C5,12.7614237 7.23857625,15 10,15 Z M10,14 C12.209139,14 14,12.209139 14,10 C14,7.790861 12.209139,6 10,6 C7.790861,6 6,7.790861 6,10 C6,12.209139 7.790861,14 10,14 Z" id="Combined-Shape"></path>
                <rect id="Rectangle-171" transform="translate(5.121320, 5.121320) rotate(-45.000000) translate(-5.121320, -5.121320) " x="4.62132034" y="2.62132034" width="1" height="5"></rect>
                <rect id="Rectangle-171" transform="translate(5.213835, 14.978553) rotate(-135.000000) translate(-5.213835, -14.978553) " x="4.71383476" y="12.6804564" width="1" height="4.59619408"></rect>
                <rect id="Rectangle-171" transform="translate(15.121320, 15.121320) rotate(-45.000000) translate(-15.121320, -15.121320) " x="14.6213203" y="12.6213203" width="1" height="5"></rect>
                <rect id="Rectangle-171" transform="translate(15.121320, 5.121320) rotate(-315.000000) translate(-15.121320, -5.121320) " x="14.6213203" y="2.62132034" width="1" height="5"></rect>
            </g>
        </g>
    </g>
</svg>
