<svg width="24px" height="24px" viewBox="0 0 24 24">
    <g stroke="none" stroke-width="1" fill="none" fill-rule="evenodd">
        <g fill="#27313C">
            <g transform="translate(4.000000, 2.000000)">
                <path d="M0,10.0085302 C0,8.8992496 0.894513756,8 1.99406028,8 L14.0059397,8 C15.1072288,8 16,8.90195036 16,10.0085302 L16,17.9914698 C16,19.1007504 15.1054862,20 14.0059397,20 L1.99406028,20 C0.892771196,20 0,19.0980496 0,17.9914698 L0,10.0085302 Z M1,9.99539757 C1,9.44565467 1.44994876,9 2.00684547,9 L13.9931545,9 C14.5492199,9 15,9.4556644 15,9.99539757 L15,18.0046024 C15,18.5543453 14.5500512,19 13.9931545,19 L2.00684547,19 C1.45078007,19 1,18.5443356 1,18.0046024 L1,9.99539757 Z" id="Combined-Shape"></path>
                <path d="M13,5 C13,2.23857625 10.7614237,0 8,0 C5.23857625,0 3,2.23857625 3,5 L4,5 C4,2.790861 5.790861,1 8,1 C10.209139,1 12,2.790861 12,5 L13,5 Z M3,5 L4,5 L4,8 L3,8 L3,5 Z M12,5 L13,5 L13,8 L12,8 L12,5 Z" id="Combined-Shape"></path>
                <path d="M11,5 C11,3.34314575 9.65685425,2 8,2 C6.34314575,2 5,3.34314575 5,5 L6,5 C6,3.8954305 6.8954305,3 8,3 C9.1045695,3 10,3.8954305 10,5 L11,5 Z M5,5 L6,5 L6,9 L5,9 L5,5 Z M10,5 L11,5 L11,9 L10,9 L10,5 Z" id="Combined-Shape"></path>
            </g>
        </g>
    </g>
</svg>
