<svg width="24px" height="24px" viewBox="0 0 24 24">
    <g stroke="none" stroke-width="1" fill="none" fill-rule="evenodd">
        <g fill="#160F0F">
            <g transform="translate(2.000000, 2.000000)">
                <circle id="Eye" cx="7" cy="7" r="1"></circle>
                <circle id="Eye" cx="13" cy="7" r="1"></circle>
                <path d="M10,16 C11.6568542,16 13,14.6568542 13,13 C13,11.3431458 11.6568542,10 10,10 C8.34314575,10 7,11.3431458 7,13 C7,14.6568542 8.34314575,16 10,16 Z M10,15 C11.1045695,15 12,14.1045695 12,13 C12,11.8954305 11.1045695,11 10,11 C8.8954305,11 8,11.8954305 8,13 C8,14.1045695 8.8954305,15 10,15 Z" id="Mouth"></path>
                <path d="M10,20 C15.5228475,20 20,15.5228475 20,10 C20,4.4771525 15.5228475,0 10,0 C4.4771525,0 0,4.4771525 0,10 C0,15.5228475 4.4771525,20 10,20 Z M10,19 C14.9705627,19 19,14.9705627 19,10 C19,5.02943725 14.9705627,1 10,1 C5.02943725,1 1,5.02943725 1,10 C1,14.9705627 5.02943725,19 10,19 Z" id="Face"></path>
            </g>
        </g>
    </g>
</svg>
