<svg width="24px" height="24px" viewBox="0 0 24 24">
    <g stroke="none" stroke-width="1" fill="none" fill-rule="evenodd">
        <g fill="#27313C">
            <g transform="translate(3.000000, 3.000000)">
                <path d="M1,4 L17,4 L17,15.9941413 C17,17.1019465 16.1054862,18 15.0059397,18 L2.99406028,18 C1.8927712,18 1,17.1029399 1,15.9941413 L1,4 Z M2,5 L16,5 L16,15.9975267 C16,16.5511774 15.5500512,17 14.9931545,17 L3.00684547,17 C2.45078007,17 2,16.544239 2,15.9975267 L2,5 Z" id="Box"></path>
                <path d="M0,0.999807492 C0,0.447629061 0.444946289,0 0.993397683,0 L17.0066023,0 C17.5552407,0 18,0.443716645 18,0.999807492 L18,5 L0,5 L0,0.999807492 Z M1,1 L17,1 L17,4 L1,4 L1,1 Z" id="Lid"></path>
                <rect id="Handle" x="6" y="7" width="6" height="1"></rect>
            </g>
        </g>
    </g>
</svg>
