<svg width="24px" height="24px" viewBox="0 0 24 24">
    <g stroke="none" stroke-width="1" fill="none" fill-rule="evenodd">
        <g fill="#27313C">
            <g transform="translate(3.000000, 3.000000)">
                <path d="M0,1.99508929 C0,0.893231902 0.892622799,0 1.99508929,0 L16.0049107,0 C17.1067681,0 18,0.892622799 18,1.99508929 L18,16.0049107 C18,17.1067681 17.1073772,18 16.0049107,18 L1.99508929,18 C0.893231902,18 0,17.1073772 0,16.0049107 L0,1.99508929 Z M1,2.00087166 C1,1.4481055 1.44463086,1 2.00087166,1 L15.9991283,1 C16.5518945,1 17,1.44463086 17,2.00087166 L17,15.9991283 C17,16.5518945 16.5553691,17 15.9991283,17 L2.00087166,17 C1.4481055,17 1,16.5553691 1,15.9991283 L1,2.00087166 Z" id="Frame"></path>
                <rect id="Rectangle" x="14" y="1" width="1" height="16"></rect>
                <circle id="Knob" cx="3.5" cy="3.5" r="0.5"></circle>
                <circle id="Knob" cx="5.5" cy="3.5" r="0.5"></circle>
                <circle id="Knob" cx="7.5" cy="3.5" r="0.5"></circle>
                <path d="M7.5,15 C9.98528137,15 12,12.9852814 12,10.5 C12,8.01471863 9.98528137,6 7.5,6 C5.01471863,6 3,8.01471863 3,10.5 C3,12.9852814 5.01471863,15 7.5,15 Z M7.5,14 C9.43299662,14 11,12.4329966 11,10.5 C11,8.56700338 9.43299662,7 7.5,7 C5.56700338,7 4,8.56700338 4,10.5 C4,12.4329966 5.56700338,14 7.5,14 Z" id="Door"></path>
                <rect id="Handle" x="8" y="10" width="3" height="1"></rect>
            </g>
        </g>
    </g>
</svg>
